# xmcd
#
# Track frame offsets:
#	150
#	18437
#	36142
#	49946
#	65115
#	80686
#	97415
#	112608
#	128815
#
# Disc length: 1905 seconds
#
# Revision: 1
# Processed by: cddbd v1.5.2PL0 Copyright (c) Steve Scherf et al.
# Submitted via: audiograbber 1.83.01
#
DISCID=79076f09
DTITLE=Various Artist - CDX Volume 551 (July 30, 2012)
DYEAR=2012
DGENRE=Country
TTITLE0=Carrie Underwood - Blown Away 
TTITLE1=Eric Church - Creepin' 
TTITLE2=Her and Kings County - Family Tree
TTITLE3=Miranda Lambert - Fastest Girl In Town 
TTITLE4=Luke Bryan - Kiss Tomorrow Goodbye
TTITLE5=Alex Flanigan - Diesel, Guns and Rust 
TTITLE6=Richie Fields - Smile 
TTITLE7=Claudia Lee - Take My Hand
TTITLE8=Branch and Dean - Your Ol' Lady's Gone 
EXTD=
EXTT0=
EXTT1=
EXTT2=
EXTT3=
EXTT4=
EXTT5=
EXTT6=
EXTT7=
EXTT8=
PLAYORDER=
